<svg xmlns="http://www.w3.org/2000/svg" width="400" height="400" viewBox="0 0 400 400">
  <!-- Hieroglyphic background pattern — ancient marks, pottery stamps, organic symbols -->
  <!-- Rendered in muted earth tones at low opacity for background texture -->
  <defs>
    <style>
      .glyph { fill: none; stroke: #c9b99a; stroke-width: 1; stroke-linecap: round; stroke-linejoin: round; opacity: 0.25; }
      .glyph-fill { fill: #c9b99a; stroke: none; opacity: 0.20; }
    </style>
  </defs>

  <!-- Row 1 -->
  <!-- Eye of awareness -->
  <g transform="translate(30, 30)">
    <ellipse cx="15" cy="10" rx="14" ry="8" class="glyph"/>
    <circle cx="15" cy="10" r="4" class="glyph-fill"/>
    <path d="M 1 10 C 5 2, 25 2, 29 10" class="glyph"/>
    <path d="M 1 10 C 5 18, 25 18, 29 10" class="glyph"/>
  </g>

  <!-- Spiral (growth, continuity) -->
  <g transform="translate(120, 25)">
    <path d="M 15 20 C 15 15, 20 12, 22 15 C 24 18, 20 22, 15 20 C 8 17, 10 8, 18 7 C 26 6, 30 14, 28 22 C 26 30, 14 32, 8 26" class="glyph"/>
  </g>

  <!-- Hand (creation, making) -->
  <g transform="translate(220, 20)">
    <path d="M 12 30 L 12 12 M 12 12 L 12 5 M 16 30 L 16 8 M 16 8 L 16 3 M 20 30 L 20 6 M 20 6 L 20 2 M 24 30 L 24 8 M 24 8 L 24 4 M 8 30 L 8 18 C 6 16, 4 18, 6 20" class="glyph"/>
    <path d="M 8 30 L 28 30 C 30 28, 30 26, 28 26 L 8 26 C 4 26, 4 30, 8 30 Z" class="glyph"/>
  </g>

  <!-- Vessel/pot (pottery) -->
  <g transform="translate(320, 22)">
    <path d="M 8 8 L 6 8 C 4 8, 2 10, 4 12 L 8 28 C 9 32, 23 32, 24 28 L 28 12 C 30 10, 28 8, 26 8 L 24 8" class="glyph"/>
    <path d="M 8 8 C 10 6, 22 6, 24 8" class="glyph"/>
    <line x1="10" y1="16" x2="22" y2="16" class="glyph"/>
  </g>

  <!-- Row 2 -->
  <!-- Ankh (life) -->
  <g transform="translate(70, 110)">
    <ellipse cx="15" cy="8" rx="6" ry="7" class="glyph"/>
    <line x1="15" y1="15" x2="15" y2="35" class="glyph"/>
    <line x1="8" y1="22" x2="22" y2="22" class="glyph"/>
  </g>

  <!-- Feather (truth, Ma'at) -->
  <g transform="translate(170, 105)">
    <path d="M 15 2 C 15 2, 8 10, 8 20 C 8 28, 12 35, 15 35 C 18 35, 22 28, 22 20 C 22 10, 15 2, 15 2 Z" class="glyph"/>
    <line x1="15" y1="2" x2="15" y2="35" class="glyph"/>
    <path d="M 15 10 L 10 13 M 15 15 L 20 18 M 15 20 L 10 23 M 15 25 L 20 28" class="glyph"/>
  </g>

  <!-- Scarab (transformation) -->
  <g transform="translate(265, 108)">
    <ellipse cx="15" cy="15" rx="10" ry="12" class="glyph"/>
    <path d="M 5 12 C 0 8, 2 3, 8 5" class="glyph"/>
    <path d="M 25 12 C 30 8, 28 3, 22 5" class="glyph"/>
    <path d="M 5 18 C -2 22, 0 28, 6 26" class="glyph"/>
    <path d="M 25 18 C 32 22, 30 28, 24 26" class="glyph"/>
    <line x1="8" y1="15" x2="22" y2="15" class="glyph"/>
  </g>

  <!-- Lotus (rebirth) -->
  <g transform="translate(360, 110)">
    <path d="M 15 35 L 15 18" class="glyph"/>
    <path d="M 15 18 C 12 10, 5 5, 5 12 C 5 16, 10 18, 15 18" class="glyph"/>
    <path d="M 15 18 C 18 10, 25 5, 25 12 C 25 16, 20 18, 15 18" class="glyph"/>
    <path d="M 15 18 C 15 8, 15 3, 15 8" class="glyph"/>
  </g>

  <!-- Row 3 -->
  <!-- Sun disc -->
  <g transform="translate(25, 200)">
    <circle cx="15" cy="15" r="10" class="glyph"/>
    <circle cx="15" cy="15" r="3" class="glyph-fill"/>
  </g>

  <!-- Wave/water (flow) -->
  <g transform="translate(115, 210)">
    <path d="M 2 15 C 8 8, 14 8, 18 15 C 22 22, 28 22, 32 15" class="glyph"/>
    <path d="M 2 22 C 8 15, 14 15, 18 22 C 22 29, 28 29, 32 22" class="glyph"/>
  </g>

  <!-- Snake (wisdom, rebirth) -->
  <g transform="translate(210, 195)">
    <path d="M 5 35 C 5 25, 25 28, 25 18 C 25 8, 5 12, 5 5" class="glyph"/>
    <circle cx="5" cy="3" r="2" class="glyph-fill"/>
    <path d="M 3 3 L 1 1 M 3 3 L 1 5" class="glyph"/>
  </g>

  <!-- Leaf/plant (nature, growth) -->
  <g transform="translate(310, 195)">
    <path d="M 15 35 L 15 10" class="glyph"/>
    <path d="M 15 10 C 10 5, 3 8, 8 15 C 11 19, 15 18, 15 15" class="glyph"/>
    <path d="M 15 18 C 20 13, 27 16, 22 23 C 19 27, 15 26, 15 23" class="glyph"/>
  </g>

  <!-- Row 4 -->
  <!-- Moon crescent -->
  <g transform="translate(65, 290)">
    <path d="M 20 5 C 10 5, 3 12, 3 20 C 3 28, 10 35, 20 35 C 14 32, 10 26, 10 20 C 10 14, 14 8, 20 5 Z" class="glyph"/>
  </g>

  <!-- Mountain/pyramid -->
  <g transform="translate(160, 295)">
    <path d="M 15 5 L 2 32 L 28 32 Z" class="glyph"/>
    <line x1="15" y1="5" x2="15" y2="32" class="glyph" style="opacity: 0.15"/>
  </g>

  <!-- Bird (soul, freedom) -->
  <g transform="translate(255, 285)">
    <path d="M 2 15 C 8 5, 18 3, 25 8 C 28 10, 30 8, 32 5" class="glyph"/>
    <path d="M 25 8 C 26 12, 24 18, 20 22 L 15 22 L 18 15 C 14 18, 8 18, 5 15" class="glyph"/>
    <circle cx="27" cy="7" r="1.5" class="glyph-fill"/>
  </g>

  <!-- Broken circle with gold (kintsugi mark) -->
  <g transform="translate(350, 290)">
    <path d="M 15 3 C 22 3, 28 8, 28 15" class="glyph"/>
    <path d="M 28 15 C 28 22, 22 28, 15 28" class="glyph"/>
    <path d="M 15 28 C 8 28, 3 22, 3 15" class="glyph"/>
    <path d="M 3 15 C 3 8, 8 3, 15 3" class="glyph"/>
    <!-- The gold crack -->
    <path d="M 12 3 L 14 10 L 11 15 L 16 20 L 13 28" style="stroke: #c4854c; stroke-width: 1.5; fill: none; opacity: 0.30; stroke-linecap: round;"/>
  </g>
</svg>
