<svg xmlns="http://www.w3.org/2000/svg" viewBox="0 0 60 120" width="60" height="120">
  <!-- Footer vine growing upward -->
  <path d="M 30 120 C 30 105, 25 95, 28 85 C 31 75, 38 70, 35 60 C 32 50, 22 48, 25 38 C 28 28, 35 25, 30 15" fill="none" stroke="#2d5a3d" stroke-width="1.2" stroke-linecap="round" opacity="0.4"/>
  <!-- leaves growing from stem -->
  <path d="M 28 85 C 20 80, 16 76, 18 80 C 20 84, 24 84, 28 85 Z" fill="#6b9e78" opacity="0.35"/>
  <path d="M 35 60 C 42 55, 46 51, 44 55 C 42 59, 38 59, 35 60 Z" fill="#2d5a3d" opacity="0.3"/>
  <path d="M 25 38 C 18 33, 14 29, 16 33 C 18 37, 22 37, 25 38 Z" fill="#6b9e78" opacity="0.35"/>
  <!-- small tendril at top -->
  <path d="M 30 15 C 33 10, 36 7, 34 12" fill="none" stroke="#6b9e78" stroke-width="0.8" stroke-linecap="round" opacity="0.3"/>
</svg>
