<svg xmlns="http://www.w3.org/2000/svg" viewBox="0 0 200 40" width="200" height="40">
  <path d="M 20 20 C 35 8, 50 8, 60 18 C 70 28, 85 28, 95 20 C 105 12, 120 12, 130 20 C 140 28, 155 28, 165 18 C 175 8, 185 14, 180 20" fill="none" stroke="#6b9e78" stroke-width="1.2" stroke-linecap="round"/>
  <!-- leaves -->
  <path d="M 58 18 C 52 10, 46 8, 44 12 C 42 16, 48 16, 58 18 Z" fill="#6b9e78" opacity="0.7"/>
  <path d="M 97 20 C 100 12, 106 9, 108 13 C 110 17, 104 18, 97 20 Z" fill="#2d5a3d" opacity="0.6"/>
  <path d="M 133 20 C 127 12, 121 10, 119 14 C 117 18, 123 18, 133 20 Z" fill="#6b9e78" opacity="0.7"/>
  <!-- small tendril -->
  <path d="M 165 18 C 168 12, 172 10, 170 15" fill="none" stroke="#6b9e78" stroke-width="0.8" stroke-linecap="round" opacity="0.5"/>
</svg>
